<svg width="103" height="128" viewBox="0 0 103 128" fill="none" xmlns="http://www.w3.org/2000/svg">
<path fill-rule="evenodd" clip-rule="evenodd" d="M7.02133 119.686L6.90371 112.082C6.90371 112.082 2.06193 107.544 1.16029 105.398C0.861354 104.743 0.988765 103.966 1.47392 103.454C1.95908 102.942 2.69906 102.809 3.32149 103.119C4.2918 103.577 6.00207 104.561 7.14396 105.137C11.7015 81.6848 21.0619 69.6795 39.6981 69.6795C49.5776 69.6795 58.3444 78.5881 64.1329 70.718C70.0822 62.6314 66.8183 28.764 70.5624 14.4908C72.4295 7.3442 76.0315 1 85.2205 1C94.4825 1 102 7.11791 102 14.6583C102 22.1988 94.4825 28.3167 85.2205 28.3167C82.3929 28.3167 79.7221 27.7457 77.3845 26.7368V119.927C77.3845 123.83 74.3756 127 70.6756 127C66.9708 127 63.9617 123.83 63.9617 119.927V116.674C62.7807 116.674 61.8202 117.639 61.8202 118.825V119.927C61.8202 123.83 58.8162 127 55.1113 127C51.4114 127 48.4024 123.83 48.4024 119.927C48.4024 119.066 48.0642 118.239 47.4566 117.629C46.8489 117.018 46.0256 116.674 45.168 116.674H39.9881C38.3318 116.674 36.989 118.023 36.989 119.686C36.989 123.722 33.882 127 30.0499 127C26.2225 127 23.1157 123.722 23.1157 119.686V116.674C21.8905 116.674 20.9006 117.673 20.9006 118.899V119.686C20.9006 123.722 17.7887 127 13.9615 127C10.1293 127 7.02133 123.722 7.02133 119.686ZM86.1165 14.9541C85.4109 14.9541 84.8424 15.525 84.8424 16.2288C84.8424 16.9326 85.4109 17.5035 86.1165 17.5035C86.8124 17.5035 87.3809 16.9326 87.3809 16.2288C87.3809 15.525 86.8124 14.9541 86.1165 14.9541Z" fill="white"/>
</svg>
